# xmcd
#
# Track frame offsets:
#        150
#        4470
#        22235
#        39345
#        59020
#        77490
#        81132
#        99050
#        118385
#        121385
#        138552
#        154572
#
# Disc length: 2190 seconds
#
# Revision: 0
# Processed by: cddbd v1.5.1PL0 Copyright (c) Steve Scherf et al.
# Submitted via: ExactAudioCopy v0.95a5
#
DISCID=99088c0c
DTITLE=L.L Brothers - Back Again
DYEAR=2004
DGENRE=R&B
TTITLE0=GET IT CRUNK
TTITLE1=BACK AGAIN
TTITLE2=BIG BUTT,G-CUP
TTITLE3=FOREVER
TTITLE4=LOVE IS ON THE WAY
TTITLE5=L.L B-IZM
TTITLE6=THAT'S MY LIFE
TTITLE7=LET'S GO
TTITLE8=HOT SPOT INTERLUDE 2 featuring MICHICO
TTITLE9=SHAKE IT
TTITLE10=THE PARTY
TTITLE11=HOT SPOT 1
EXTD=
EXTT0=
EXTT1=
EXTT2=
EXTT3=
EXTT4=
EXTT5=
EXTT6=
EXTT7=
EXTT8=
EXTT9=
EXTT10=
EXTT11=
PLAYORDER=
